<svg width="24" height="25" viewBox="0 0 24 25" fill="none" xmlns="http://www.w3.org/2000/svg">
<g clip-path="url(#clip0_231_3468)">
<path d="M14.29 6.40969C13.9 6.79969 13.9 7.42969 14.29 7.81969L18.17 11.6997H3C2.45 11.6997 2 12.1497 2 12.6997C2 13.2497 2.45 13.6997 3 13.6997H18.18L14.3 17.5797C13.91 17.9697 13.91 18.5997 14.3 18.9897C14.69 19.3797 15.32 19.3797 15.71 18.9897L21.3 13.3997C21.69 13.0097 21.69 12.3797 21.3 11.9897L15.7 6.40969C15.32 6.01969 14.68 6.01969 14.29 6.40969Z" fill="white"/>
</g>
<defs>
<clipPath id="clip0_231_3468">
<rect width="24" height="24" fill="white" transform="translate(0 0.699219)"/>
</clipPath>
</defs>
</svg>
