<svg width="81" height="81" viewBox="0 0 81 81" fill="none" xmlns="http://www.w3.org/2000/svg">
<path d="M40.7799 80.9688C62.8516 80.9688 80.7443 63.0601 80.7443 40.9688C80.7443 18.8774 62.8516 0.96875 40.7799 0.96875C18.7081 0.96875 0.81543 18.8774 0.81543 40.9688C0.81543 63.0601 18.7081 80.9688 40.7799 80.9688Z" fill="#CFD5D5"/>
<path d="M24.7742 49.1265V34.7844C24.7742 32.0871 26.1545 30.7055 28.9152 30.7055H32.1032C33.1877 30.7055 33.5164 30.5081 34.1408 29.8173L35.2583 28.5673C35.9484 27.8107 36.6057 27.416 37.9861 27.416H43.3432C44.7235 27.416 45.3808 27.7779 46.071 28.5673L47.1884 29.8173C47.8129 30.541 48.1415 30.7055 49.2261 30.7055H52.5784C55.3062 30.7055 56.6866 32.0871 56.6866 34.7844V49.1265C56.6866 51.8239 55.3062 53.2055 52.5784 53.2055H28.8495C26.1874 53.2055 24.7742 51.8239 24.7742 49.1265ZM52.5784 51.3305C54.0245 51.3305 54.8461 50.541 54.8461 49.0279V34.8831C54.8461 33.37 54.0245 32.6134 52.5784 32.6134H48.8317C47.6157 32.6134 46.9584 32.416 46.2682 31.6265L45.1508 30.4094C44.3949 29.5542 43.9676 29.3568 42.8173 29.3568H38.5119C37.3288 29.3568 36.9673 29.5542 36.1785 30.4094L35.0939 31.6265C34.4038 32.416 33.7465 32.6134 32.5304 32.6134H28.9481C27.502 32.6134 26.6804 33.4029 26.6804 34.8831V49.0279C26.6804 50.541 27.502 51.3305 28.9481 51.3305H52.5784ZM33.2863 41.4621C33.2863 37.2844 36.6386 33.9621 40.7797 33.9621C44.9207 33.9621 48.2401 37.2844 48.2401 41.4621C48.2401 45.6397 44.9207 48.9621 40.7797 48.9621C36.6386 48.9621 33.2863 45.6397 33.2863 41.4621ZM46.4654 41.4621C46.4654 38.3042 43.9347 35.7384 40.7797 35.7384C37.6246 35.7384 35.0939 38.2713 35.0939 41.4621C35.0939 44.62 37.6574 47.1529 40.7797 47.1529C43.9019 47.1529 46.4654 44.62 46.4654 41.4621ZM48.996 36.4621C48.996 35.5739 49.7191 34.8502 50.6064 34.8502C51.4938 34.8502 52.2169 35.5739 52.2169 36.4621C52.2169 37.3502 51.4938 38.041 50.6064 38.041C49.7191 38.0739 48.996 37.3502 48.996 36.4621Z" fill="#83B4FF"/>
</svg>
